<svg width="33" height="33" viewBox="0 0 33 33" fill="none" xmlns="http://www.w3.org/2000/svg">
<path d="M27.2895 17.0543L28.8621 8.43047C28.8895 8.28235 28.8829 8.12994 28.8427 7.98477C28.8025 7.8396 28.7298 7.70548 28.6301 7.59258C28.5348 7.47602 28.4148 7.38203 28.2789 7.31739C28.1429 7.25275 27.9943 7.21906 27.8438 7.21875H7.05117L6.41953 3.75117C6.33228 3.27776 6.08218 2.84977 5.71256 2.54137C5.34294 2.23296 4.87709 2.06355 4.3957 2.0625H2.0625C1.789 2.0625 1.52669 2.17115 1.3333 2.36455C1.1399 2.55794 1.03125 2.82025 1.03125 3.09375C1.03125 3.36725 1.1399 3.62956 1.3333 3.82295C1.52669 4.01635 1.789 4.125 2.0625 4.125H4.3957L7.92773 23.5898C7.42415 24.0334 7.0542 24.6086 6.85943 25.2508C6.66465 25.893 6.65277 26.5767 6.82512 27.2253C6.99746 27.8739 7.3472 28.4616 7.83507 28.9223C8.32294 29.3831 8.92961 29.6988 9.58696 29.8339C10.2443 29.9689 10.9263 29.9181 11.5563 29.687C12.1864 29.4559 12.7395 29.0537 13.1536 28.5257C13.5677 27.9976 13.8264 27.3646 13.9007 26.6976C13.9749 26.0306 13.8617 25.3562 13.5738 24.75H20.4574C20.1222 25.4566 20.0256 26.253 20.1822 27.0192C20.3387 27.7855 20.7399 28.4802 21.3253 28.9987C21.9107 29.5173 22.6488 29.8317 23.4283 29.8946C24.2078 29.9574 24.9867 29.7654 25.6477 29.3474C26.3087 28.9294 26.816 28.308 27.0934 27.5767C27.3707 26.8455 27.403 26.0439 27.1854 25.2927C26.9678 24.5415 26.5121 23.8813 25.8869 23.4115C25.2617 22.9416 24.5008 22.6875 23.7188 22.6875H9.86133L9.29414 19.5938H24.2473C24.9714 19.5934 25.6724 19.3391 26.2283 18.875C26.7842 18.411 27.1597 17.7667 27.2895 17.0543ZM11.8594 26.2969C11.8594 26.6028 11.7687 26.9019 11.5987 27.1563C11.4287 27.4107 11.1871 27.6089 10.9045 27.726C10.6218 27.8431 10.3108 27.8737 10.0107 27.814C9.71065 27.7543 9.43503 27.607 9.21869 27.3907C9.00236 27.1743 8.85503 26.8987 8.79535 26.5987C8.73566 26.2986 8.76629 25.9876 8.88337 25.7049C9.00045 25.4223 9.19872 25.1807 9.4531 25.0107C9.70748 24.8407 10.0066 24.75 10.3125 24.75C10.7228 24.75 11.1162 24.913 11.4063 25.2031C11.6964 25.4932 11.8594 25.8866 11.8594 26.2969ZM25.2656 26.2969C25.2656 26.6028 25.1749 26.9019 25.0049 27.1563C24.835 27.4107 24.5934 27.6089 24.3107 27.726C24.0281 27.8431 23.717 27.8737 23.417 27.814C23.1169 27.7543 22.8413 27.607 22.6249 27.3907C22.4086 27.1743 22.2613 26.8987 22.2016 26.5987C22.1419 26.2986 22.1725 25.9876 22.2896 25.7049C22.4067 25.4223 22.605 25.1807 22.8594 25.0107C23.1137 24.8407 23.4128 24.75 23.7188 24.75C24.129 24.75 24.5225 24.913 24.8126 25.2031C25.1027 25.4932 25.2656 25.8866 25.2656 26.2969ZM7.425 9.28125H26.6062L25.2656 16.6805C25.2231 16.9194 25.0977 17.1358 24.9115 17.2914C24.7252 17.447 24.49 17.532 24.2473 17.5312H8.92031L7.425 9.28125Z" fill="black"/>
</svg>
