<svg width="30" height="30" viewBox="0 0 30 30" fill="none" xmlns="http://www.w3.org/2000/svg">
<path fill-rule="evenodd" clip-rule="evenodd" d="M27.7292 15.17C27.7292 14.8492 27.6018 14.5415 27.3749 14.3147C27.1481 14.0878 26.8404 13.9604 26.5196 13.9604H3.93893C3.6181 13.9604 3.31041 14.0878 3.08355 14.3147C2.8567 14.5415 2.72925 14.8492 2.72925 15.17C2.72925 15.4909 2.8567 15.7985 3.08355 16.0254C3.31041 16.2523 3.6181 16.3797 3.93893 16.3797H26.5196C26.8404 16.3797 27.1481 16.2523 27.3749 16.0254C27.6018 15.7985 27.7292 15.4909 27.7292 15.17ZM27.7292 7.10552C27.7292 6.78469 27.6018 6.47701 27.3749 6.25015C27.1481 6.02329 26.8404 5.89584 26.5196 5.89584H3.93893C3.6181 5.89584 3.31041 6.02329 3.08355 6.25015C2.8567 6.47701 2.72925 6.78469 2.72925 7.10552C2.72925 7.42635 2.8567 7.73403 3.08355 7.96089C3.31041 8.18775 3.6181 8.3152 3.93893 8.3152H26.5196C26.8404 8.3152 27.1481 8.18775 27.3749 7.96089C27.6018 7.73403 27.7292 7.42635 27.7292 7.10552ZM27.7292 23.2346C27.7292 22.9137 27.6018 22.606 27.3749 22.3792C27.1481 22.1523 26.8404 22.0249 26.5196 22.0249H3.93893C3.6181 22.0249 3.31041 22.1523 3.08355 22.3792C2.8567 22.606 2.72925 22.9137 2.72925 23.2346C2.72925 23.5554 2.8567 23.8631 3.08355 24.0899C3.31041 24.3168 3.6181 24.4442 3.93893 24.4442H26.5196C26.8404 24.4442 27.1481 24.3168 27.3749 24.0899C27.6018 23.8631 27.7292 23.5554 27.7292 23.2346Z" fill="black"/>
</svg>
