<svg width="27" height="24" viewBox="0 0 27 24" fill="none" xmlns="http://www.w3.org/2000/svg">
<path d="M3.75 9.057V16.5C3.75 17.2956 4.08582 18.0587 4.6836 18.6213C5.28137 19.1839 6.09212 19.5 6.9375 19.5H19.6875C20.5329 19.5 21.3436 19.1839 21.9414 18.6213C22.5392 18.0587 22.875 17.2956 22.875 16.5V7.5C22.875 6.70435 22.5392 5.94129 21.9414 5.37868C21.3436 4.81607 20.5329 4.5 19.6875 4.5H6.9375C6.09212 4.5 5.28137 4.81607 4.6836 5.37868C4.08582 5.94129 3.75 6.70435 3.75 7.5V9.057ZM6.9375 6H19.6875C20.1102 6 20.5156 6.15804 20.8145 6.43934C21.1133 6.72064 21.2812 7.10218 21.2812 7.5V8.61L13.3125 12.648L5.34375 8.61V7.5C5.34375 7.10218 5.51166 6.72064 5.81055 6.43934C6.10943 6.15804 6.51481 6 6.9375 6ZM5.34375 10.314L12.9348 14.16C13.0509 14.2188 13.1807 14.2496 13.3125 14.2496C13.4443 14.2496 13.5741 14.2188 13.6902 14.16L21.2812 10.314V16.5C21.2812 16.8978 21.1133 17.2794 20.8145 17.5607C20.5156 17.842 20.1102 18 19.6875 18H6.9375C6.51481 18 6.10943 17.842 5.81055 17.5607C5.51166 17.2794 5.34375 16.8978 5.34375 16.5V10.314Z" fill="black" fill-opacity="0.5"/>
</svg>
