<svg width="32" height="32" viewBox="0 0 32 32" fill="none" xmlns="http://www.w3.org/2000/svg">
<path d="M15.9999 27.604L16.4573 28.4933C16.3158 28.5663 16.159 28.6044 15.9999 28.6044C15.8408 28.6044 15.684 28.5663 15.5426 28.4933L15.5386 28.4907L15.5293 28.4867L15.4959 28.4693C13.014 27.1215 10.6761 25.5239 8.51859 23.7013C5.06659 20.764 1.33325 16.4427 1.33325 11.352V11.3507C1.33325 6.73734 5.10525 3.33334 8.98125 3.33334C12.0399 3.33334 14.5079 4.96801 15.9999 7.47334C17.4933 4.96801 19.9599 3.33334 23.0186 3.33334C26.8933 3.33334 30.6666 6.73601 30.6666 11.352C30.6666 16.4427 26.9319 20.7653 23.4813 23.7013C21.3236 25.5238 18.9858 27.1214 16.5039 28.4693L16.4706 28.4867L16.4613 28.4907L16.4586 28.492L15.9999 27.604ZM8.98125 5.33334C6.20925 5.33334 3.33325 7.84001 3.33325 11.352C3.33325 15.4947 6.43192 19.2987 9.81459 22.1787C11.7068 23.7774 13.7451 25.1947 15.9026 26.412L15.9999 26.4667L16.0973 26.4133C16.4586 26.2093 16.9786 25.9067 17.6039 25.5147C18.8573 24.7307 20.5239 23.5933 22.1853 22.1787C25.5679 19.2987 28.6666 15.4947 28.6666 11.352C28.6666 7.84001 25.7906 5.33334 23.0186 5.33334C20.2106 5.33334 17.9506 7.18534 16.9479 10.1907C16.8806 10.3887 16.7529 10.5606 16.5829 10.6823C16.4129 10.8041 16.209 10.8696 15.9999 10.8696C15.7908 10.8696 15.5869 10.8041 15.4169 10.6823C15.2469 10.5606 15.1193 10.3887 15.0519 10.1907C14.0493 7.18534 11.7879 5.33334 8.98125 5.33334Z" fill="black"/>
</svg>
