<svg width="24" height="22" viewBox="0 0 24 22" fill="none" xmlns="http://www.w3.org/2000/svg">
<path d="M12.1874 15.5833C12.704 15.5833 13.1995 15.3902 13.5648 15.0464C13.9301 14.7025 14.1353 14.2362 14.1353 13.75C14.1353 13.2638 13.9301 12.7975 13.5648 12.4536C13.1995 12.1098 12.704 11.9167 12.1874 11.9167C11.6708 11.9167 11.1753 12.1098 10.81 12.4536C10.4447 12.7975 10.2395 13.2638 10.2395 13.75C10.2395 14.2362 10.4447 14.7025 10.81 15.0464C11.1753 15.3902 11.6708 15.5833 12.1874 15.5833ZM18.0312 7.33333C18.5478 7.33333 19.0432 7.52649 19.4086 7.87031C19.7739 8.21412 19.9791 8.68044 19.9791 9.16667V18.3333C19.9791 18.8196 19.7739 19.2859 19.4086 19.6297C19.0432 19.9735 18.5478 20.1667 18.0312 20.1667H6.34367C5.82705 20.1667 5.33159 19.9735 4.96628 19.6297C4.60098 19.2859 4.39575 18.8196 4.39575 18.3333V9.16667C4.39575 8.68044 4.60098 8.21412 4.96628 7.87031C5.33159 7.52649 5.82705 7.33333 6.34367 7.33333H7.31763V5.5C7.31763 4.28443 7.83069 3.11864 8.74396 2.2591C9.65722 1.39955 10.8959 0.916668 12.1874 0.916668C12.8269 0.916668 13.4602 1.03522 14.051 1.26555C14.6418 1.49589 15.1787 1.83349 15.6309 2.2591C16.0831 2.6847 16.4418 3.18996 16.6865 3.74604C16.9312 4.30211 17.0572 4.89811 17.0572 5.5V7.33333H18.0312ZM12.1874 2.75C11.4125 2.75 10.6693 3.03973 10.1213 3.55546C9.57338 4.07118 9.26554 4.77066 9.26554 5.5V7.33333H15.1093V5.5C15.1093 4.77066 14.8015 4.07118 14.2535 3.55546C13.7055 3.03973 12.9623 2.75 12.1874 2.75Z" fill="black" fill-opacity="0.5"/>
</svg>
