<svg width="26" height="26" viewBox="0 0 26 26" fill="none" xmlns="http://www.w3.org/2000/svg">
<path d="M19.1507 18.0017L23.6996 22.6406L22.1967 24.1735L17.6489 19.5336C15.9567 20.9172 13.8519 21.6698 11.6831 21.6667C6.40662 21.6667 2.12427 17.2987 2.12427 11.9167C2.12427 6.53466 6.40662 2.16666 11.6831 2.16666C16.9596 2.16666 21.2419 6.53466 21.2419 11.9167C21.245 14.1288 20.5072 16.2757 19.1507 18.0017ZM17.0201 17.1979C18.368 15.784 19.1208 13.8888 19.1177 11.9167C19.1177 7.72632 15.7902 4.33332 11.6831 4.33332C7.57492 4.33332 4.24845 7.72632 4.24845 11.9167C4.24845 16.1059 7.57492 19.5 11.6831 19.5C13.6166 19.5031 15.4746 18.7353 16.8608 17.3604L17.0201 17.1979Z" fill="black"/>
</svg>
