<svg width="22" height="23" viewBox="0 0 22 23" fill="none" xmlns="http://www.w3.org/2000/svg">
<path d="M19.929 19.0469C18.6461 16.7366 16.5928 15.0026 14.1626 14.1773C15.3274 13.4532 16.2327 12.3492 16.7392 11.035C17.2457 9.72081 17.3255 8.26912 16.9663 6.90292C16.6071 5.53673 15.8288 4.33161 14.7509 3.4727C13.6731 2.61379 12.3553 2.14861 11.0001 2.14861C9.6448 2.14861 8.32702 2.61379 7.24917 3.4727C6.17132 4.33161 5.39302 5.53673 5.03383 6.90292C4.67464 8.26912 4.75443 9.72081 5.26095 11.035C5.76747 12.3492 6.67269 13.4532 7.83756 14.1773C5.40733 15.0026 3.35397 16.7366 2.07115 19.0469C2.01735 19.1285 1.98027 19.2208 1.96225 19.3181C1.94422 19.4155 1.94564 19.5156 1.96642 19.6123C1.9872 19.709 2.02689 19.8002 2.08299 19.8801C2.13908 19.96 2.21038 20.0269 2.2924 20.0766C2.37443 20.1263 2.46539 20.1578 2.55959 20.1689C2.65379 20.1801 2.74919 20.1708 2.83979 20.1416C2.93038 20.1124 3.01422 20.0639 3.08604 19.9992C3.15785 19.9345 3.21609 19.855 3.25709 19.7656C4.04289 18.3461 5.17194 17.1675 6.53097 16.3482C7.89001 15.5288 9.43124 15.0975 11.0001 15.0975C12.5689 15.0975 14.1101 15.5288 15.4691 16.3482C16.8282 17.1675 17.9572 18.3461 18.743 19.7656C18.784 19.855 18.8423 19.9345 18.9141 19.9992C18.9859 20.0639 19.0697 20.1124 19.1603 20.1416C19.2509 20.1708 19.3463 20.1801 19.4405 20.1689C19.5347 20.1578 19.6257 20.1263 19.7077 20.0766C19.7897 20.0269 19.861 19.96 19.9171 19.8801C19.9732 19.8002 20.0129 19.709 20.0337 19.6123C20.0545 19.5156 20.0559 19.4155 20.0379 19.3181C20.0199 19.2208 19.9828 19.1285 19.929 19.0469ZM6.18756 8.625C6.18756 7.62991 6.46981 6.65717 6.99861 5.82978C7.52742 5.0024 8.27903 4.35753 9.1584 3.97673C10.0378 3.59592 11.0054 3.49629 11.9389 3.69042C12.8725 3.88455 13.73 4.36373 14.403 5.06737C15.0761 5.771 15.5344 6.66748 15.7201 7.64345C15.9058 8.61942 15.8105 9.63103 15.4462 10.5504C15.082 11.4697 14.4652 12.2555 13.6737 12.8083C12.8823 13.3612 11.9519 13.6562 11.0001 13.6562C9.72371 13.6562 8.49963 13.1262 7.59711 12.1826C6.69459 11.2391 6.18756 9.95937 6.18756 8.625Z" fill="black" fill-opacity="0.5"/>
</svg>
